<mxfile host="app.diagrams.net" agent="Mozilla/5.0 (X11; Ubuntu; Linux x86_64; rv:137.0) Gecko/20100101 Firefox/137.0" version="26.2.14">
  <diagram name="Page-1" id="20VO7FHGQsyy3se5f9IB">
    <mxGraphModel dx="1426" dy="795" grid="1" gridSize="10" guides="1" tooltips="1" connect="1" arrows="1" fold="1" page="1" pageScale="1" pageWidth="850" pageHeight="1100" math="0" shadow="0">
      <root>
        <mxCell id="0" />
        <mxCell id="1" parent="0" />
        <mxCell id="bXPCxXU-g-IQLhuPD34G-51" value="" style="rounded=1;whiteSpace=wrap;html=1;fillColor=#e1d5e7;strokeColor=#9673a6;strokeWidth=4;dashed=1;" vertex="1" parent="1">
          <mxGeometry x="80" y="150" width="600" height="610" as="geometry" />
        </mxCell>
        <mxCell id="bXPCxXU-g-IQLhuPD34G-11" value="" style="rounded=1;whiteSpace=wrap;html=1;container=0;fillColor=#dae8fc;strokeColor=#6c8ebf;strokeWidth=3;" vertex="1" parent="1">
          <mxGeometry x="400" y="480" width="240" height="240" as="geometry" />
        </mxCell>
        <mxCell id="bXPCxXU-g-IQLhuPD34G-45" style="edgeStyle=orthogonalEdgeStyle;rounded=0;orthogonalLoop=1;jettySize=auto;html=1;exitX=0.5;exitY=1;exitDx=0;exitDy=0;" edge="1" parent="1" source="bXPCxXU-g-IQLhuPD34G-2" target="bXPCxXU-g-IQLhuPD34G-18">
          <mxGeometry relative="1" as="geometry" />
        </mxCell>
        <mxCell id="bXPCxXU-g-IQLhuPD34G-18" value="" style="rounded=1;whiteSpace=wrap;html=1;container=0;fillColor=#dae8fc;strokeColor=#6c8ebf;strokeWidth=3;" vertex="1" parent="1">
          <mxGeometry x="120" y="480" width="240" height="240" as="geometry" />
        </mxCell>
        <mxCell id="bXPCxXU-g-IQLhuPD34G-39" value="" style="rounded=1;whiteSpace=wrap;html=1;container=0;fillColor=#dae8fc;strokeColor=#6c8ebf;strokeWidth=3;" vertex="1" parent="1">
          <mxGeometry x="400" y="200" width="240" height="240" as="geometry" />
        </mxCell>
        <mxCell id="bXPCxXU-g-IQLhuPD34G-10" value="" style="shape=image;verticalLabelPosition=bottom;labelBackgroundColor=default;verticalAlign=top;aspect=fixed;imageAspect=0;image=data:image/png,iVBORw0KGgoAAAANSUhEUgAAAQAAAAEACAYAAABccqhmAAAasklEQVR4nOzde7xOZd4/8M/etu18LqTk7HEWJS2HFEaRJJWpqTRTjbI6SnJ8GMYhpKTHMplqZnQclVIiCklZoYiQkXKW83Gz7c3e9+91r32ZH9q4916H7zp83v/0PF72uj5zu9dnr8N1rZUSi8VgR1JSkq2fJ48ZWgqABwA8BKCe+tO1AF4G8Cp086RwQsoD2/svCyBCDK09gBcANDjH31gNoDd083OPk1E+sQDowgytBoDxAG5J8CdmAOgD3fzZ5WRkEwuAzs3QSgAYZP1WB1Lz+NOZ6mhhJHTziEsJySYWAP2WoSUD6AHgWQAVbG5tF4D+AKZCN7MdSkgOYQHQmQytBYAXAVzl8Ja/BfAEdHOxw9slG1gAlMPQLgMwFsBdLo/0FoB+0M1tLo9DCWABRJ2hFQHQ19opgaIejXoMwBgA46Cb6R6NSblgAUSZof1e7YhVhBJsVkcD/xYaP/JYAFFkaFcAmAigtXQUZRGAx6Gb30sHiRoWQJQYWnkAIwA8GP/opeOcJf5FegXAYOjmbukwUcECiAJDSwXwGIAhAEpKx7mAwwCGA3gJupkpHSbsWABhZ2g3qQk5taSj5NFPalrxJ9JBwowFEFaGVhfA8wBulI5i06cAnoJu/igdJIxYAGFjaGUADAXwCIAU6TgOOQlgEoBh0M0D0mHChAUQFoZWAMCfAfwVwEXScVyyF8D/Avg7dDNLOkwYsADCwNCuU7f1GkpH8cgP6rbhF9JBgo4FEGSGVg3AcwC6SUcRMh3A09DNjdJBgooFEESGVhzAQOviGFBIOo6wDHWxcxR0M006TNCwAILE0OIf1r0ARgOoJB3HZ3YAGADgdeimvS9lhLAAgsLQrgEwAUBz6Sg+twTAk9DNb6SDBAELwO8M7VL1G/9e6SgB87p1RKCb26WD+BkLwK8MrbA6x4+f6xeTjhNQR61rA8Dz0M3j0mH8iAXgR4Z2m7q6X1U6SkhsUncL3pcO4jcsAD8xtEbqfn4b6SghtVDNH1glHcQvWAB+YGgXqxVwPQEkS8cJuWwAU6yVkbq5RzqMNBaAJEMrqObsDwVQWjpOxBy01hYAk6CbJ6TDSGEBSDG0jmoCSx3pKBG3Tq02nC0dRAILwGuGVlutz+8kHYXOMEs9f2C9dBAvsQC8Ymil1BN5HgNQUDoO5eqE9SQiYDh085B0GC+wANyW85adB9Wz+C6WjkMJ2WM9mxB4JexvM2IBuMnQrlW39RpLR6F8WaluG34pHcQtLAA3GFpV9bz97tJRyBHT1PsLNkkHcRoLwEmGVky9YacvgMLScchRx603GcWLXTePSodxCgvACTnLdO9S79a7VDoOuWo7gGcAvB2GZccsALsMrZl6m64mHYU8Zaq3HS+TDmIHCyC/DK2ien9+Dx++ZYe8Ef/yTwXQH7q5UzpMfrAA8srQClkTRoBBAIpLxyFfSAMw0prgpZsZ0mHyggWQF4bWFcB4ANWlo5Av/QKgD3TzQ+kgiWIBJMLQGqrpu+2ko1AgzFPTin+QDnIhLIDzMbRyapnuQwAKSMehQMkC8LJadrxPOsy5sAByY2gpAHqp5aJlpONQoB1Qy70nQzdPSoc5GwvgbIbWQR3u15OOQqGyVp0WzJUOcjoWwCmGVlOtz79ZOgqF2sfq+QMbpIOABWDt+CXVLb3eXKZLHjmhjjJHQjcPSwaJbgHkLNP9o3rmfnmZEBRxu9XbjP4ptew4mgVgaK3U9N2m3g9O9BvL1bTir7weOFoFYGiV1YKdO70blChh71gLjXRzq1cDRqMADK2IWqb7DIAi7g9IlG/p6pfUGOhmutuDhbsAcpbp/l59oJXdG4jIcVvVL6x/u7nsOLwFYGhN1eO4WrozAJEnvlaPJVvuxsbDVwCGVkGtzLqfy3QpJOI72WvW7Wrd3OXohkNTAIaWal1JBf4XQAlnNkrkK0cA/NW6g6WbmU5sMBwFYGg3q1l8Ne1vjMj3NqjZhB/b3VCwC8DQ6qkZVR1shSAKprlqfcHa/G4gmAVgaGXUSj2dy3Qp4rLie4S14lA3D+T1h4NVADnLdHuq86CytgYmCpf96vrXlLwsOw5OARhaWzV9t4GtAYnCbbWaVjw/kb/s/wIwtOrqOXxdbQ1EFC0fqucT/nK+v+TfAjC0EgAGWlc7gVRbgxBFU6a6OzYKunkkt7/gvwLImb57n1qmW9HWxokobqdadvyvs6cV+6sADE1T5/nNbG2UiHKzTF0fME/9gT8KwNAKqEOVx21tjIgSMVFNJMqyu/8mOxRoLHd+Is88rvY52+wfAUxuURzAYS7cIfJUfMctGeu1OM3ORlIcCFIxCjv/RYVLo0Plq3F1+XqoU6YKqpW4BIVTCqFwgVSknUjH4cyj2HZ0N9Yf3IJ1Bzdj0Y6V1n/JeY3L1UTHyzVcU6EBapeujFKpxVEgORmHMtKw/tBWLNm1Bp9sXowVe9dLR3VTktr3bD2d2IkjgIYAVtnaiE8lJyWja7Vr8XD9rmh36VXW/58Xu9L3W1/EN9fPwRc7ViA7JvLcyFCIf/a/r9kO/Zvci0blElszFi+AZ5e/jnd/no8YXHsmh6RGsV6Lbb2+zIkCaARgpa2N+FCbSk3wYqve1m8bJ2xL243xK9/GKz9+ZB0xUOIalquBV64bYB195cfCHSvQY95wbElzdCm+HzSO9Vps65evUxcBQyMluQCeb/E4vrhlkmM7f9xlxcvjhZZPYNM90/FU47tQMNmJs6/wu6vW77D0tlfzvfNDlfn33aei9SWNHc0WBiyA0xRNKYyPOo5F78buPXS4XOFSGN/iMay4419oevH/uDZOGPSsdwveaj/Mus5iV5lCJTCn8wSWwFlYAEqBpGRM6zDCurjkhfplq+Gbbn/Hw/Vv9WS8oOlcpSUmX9vX0W0WSSmEGR3H4vLiFRzdbpCxAJQhV92Pm6q08HTM+GlA/Es+oeWTSAr/jZSEVSp2Eaa2G5Lni66JiB8JxLfNzzsHC0BdZBp05R/Fxn+iUXdMuraP2Ph+80LLJ6wd1S1tKjVB95rtXNt+kLAAAPy1WU/rFEBSr/rdREvILxqXq4nuNdzfOQfzs7ZEvgCqlKiILtVaScewjLi6J26vcb10DFGPNrzdk3EalK2OKy+u48lYfhb5Ari1WhtfnQ9ObTsksncH4kdhd9Ro69l4N1flO2ciXwB+uy1UJKUQZnZ6zroQFjXNyte1pvV6pXn5+p6N5VeRL4C6ZapKR/iNS4qWs+YjFE0pLB3FU4lO8XVKzVKXeTqeH0W+AMoWLikdIVfx89N/tB3kq9MTt1Up4e0DpNy80xAUkS8AJ2aZuaV7jXYY2ux+6RieKZbi7ZvfU5L5SorIF4DfDb3qAdxZs710DAopFkAA/KPtYFuLYYjOhQUQAPHTlBkdx1grComcxAIIiIoRvTNA7mIBBEiTi2pzIQs5igUQMLdVvw4jmveUjkEhwQIIoIFN78PdtW6QjkEhwAIIqFevH4hrKnAqK9nDAgioQgUK4sOOY/h0G7KFBRBgFYqUtR5xVaygtzPoKDxYAAF3xUW18Fb7v7jy+CwKP35rQqBL1dYY1fxh6RgUQCyAkOjX5B7cW/tG6RgUMCyAEHnl+gFoUbGhdAwKEBZAiKQmF8QHNz6LqiUukY5CAcECCJnyRcrg407jUKJgUekoFAAsgBBqULY63vrdMPFHnZP/8RsSUp2rtMToa3pJxyCfYwGEWN8r7sYf69wkHYN8jAUQclPa9MO1la6QjkE+xQIIuYLJKZh+w2hUK1lJOgr5EAsgAsoVLoWZncahZGox6SjkMyyAiKhXphre/t1w3hmgM/DbECGdLtcwTntUOgb5CAsgYno3vhM9690iHYN8ggUQQf/Xug+uq9RUOgb5AAsgggomp+D9G0ehRslLpaOQMBaAx346tBUPLRyD9JMZojnKFiqJmTc95+nruMl/WAAem73lG0xZOwM95g+XjoI6patgWocRvDMQYfyX91gsFrP++97PCzBk6d+l46BD5asxodWT0jFICAtA0Ijv/ol3NnwuHQOPNrgdD9e/VToGCWABCIohhvsXjMTS3Wulo+ClVk+h7aVXSscgj7EAhKWfzMAts/tha9ou0RwpyQXw3g2jULv05aI5yFssAB/YeWyfVQLHTh4XzVGmUAl83HGs9V+KBhaAT6zYux73fD5MOoZ1BPBuh5HWEQGFHwvARz7YuBCDlrwsHQPtLrsKE1v1lo5BHmAB+Mzo5VPxxvo50jHQq3436A26Sccgl7EAfCaGGB78YhTMXaulo2Biq6eseQIUXiwAH8rIOoFbZ/fHFuE7AwWSkq2ZgnVKVxHNQe5hAfjUrvT96DKrL46eSBfNUSq1uPWegbKFSormIHewAHxs5b4NuHveX5AdyxbNUbPUZdYcgYLJKaI5yHksAJ+bsXERBiz5m3QMXH9pU7zU+inpGOQwFkAAjF3xBv71n1nSMfBQva54olF36RjkIBZAQPT8Ygy+3rlKOgaeb/E4Ol6uSccgh7AAAiIz+wS6fToAm4/sFM2RnJSMd343HHXLVBXNQc5gAQTI7vQD6DzraRw5cUw0R8nUYpjZ6TnrfQMUbCyAgFm9/xfc9dkQ8TsD1UtWwvs3jEJqckHRHGQPCyCAPtm8GM+Yk6RjoE2lJpjcpq90DLKBBRBQ41e+jdfWzZSOgfvrdEafxndJx6B8YgEEWK+F47Do15XSMTBWewQ3VWkhHYPygQUQYJnZJ3Drp/3xy+EdojmSk5Kt9w7WL1tNNAflHQsg4PYdP2TdGTiceVQ0R4mCRa07A+WLlBHNQXnDAgiBHw9swp0+uDNQtcQlmH7jaN4ZCBAWQEjM3mKiz+KXpGOgZcVGmHJdP+kYlCAWQIhMWPVv661D0u77n054psk90jEoASyAkHl00Xgs2L5cOgZGN38YN1dtJR2DLoAFEDInsk/i9jkDseHQNtEc1p2B9sPQuFxN0Rx0fiyAENqfcRg3z+qLQ5lpojmKFSyCjzqNQ4UiZUVz0LmxAEJq3cHN6D53sPidgcuLV8AHHZ9FoQK8M+BHLIAQm7t1KR7/6gXpGNAqNMAr1w2UjkG5YAGE3KTV72PymunSMXBP7RswoGkP6Rh0FhZABMSPAuZt+1Y6BkY1fxi3VmsjHYNOwwKIgJPZWbhj7iCsP7hFOgreaD8UTS6qLR2DFBZARBzIOIIus5/BwQzZOwNFUwpjRscxqFi0nGgOysECiJD/HNyC2+YMsI4IJFUuXgEf3vgsChdIFc1BLIDImb/9Ozz21fPSMdC8Qn38o+1gJCFJOkqksQAi6G9rPsD/rX5POgburNkeg6/8o3SMSGMBRNSTX03AZ9uWSsfA8Kv/jNtrXG/930lJPBrwGgsgorJi2dZMwXUHN0tHwdS2Q/Dnel3Q8fJrpKNEDgsgwg5mpKHzJ09bawckFUkphClt+qNWqcqiOaKIBRBxPx/ejts+HWitIqToYQEQvtix3HqOAEUPC4AsU9bOwIurpknHII+xAOi/+iyeiFlbTOkY5CEWAP1XVizbeu/g2gMbpaOQR1gAdIbDmUfReVZf630DFH4sAPqNjYd3oNucAbwzEAEsAMrVlzu+x8MLx0rHIJexAOicXls3E+O+f1M6BrmIBUDnNeCbyZi5+WvpGOQSFgCdV1YsG3/4bChW7/9FOgq5gAVAF3TkxDHrPQN70g9KRyGHsQAoIZuO/IpbP+2PzOwT0lHIQSwAStjXO1fhwQWjpWOQg1gAlCevr/8UY1a8IR2DHMICoDwbuORv+GjTIukY5AAWAOVZdiwbd3/+F6zct0E6CtnEAqB8STuRji6z+mJX+n7pKGQDC4DybUvaLnSd3Q8ZWbwzEFQsALLlm11r8MCCUdIxKJ9YAGTbmz/NwejlU6VjUD6wAMgRg5a8jA82LpSOQXnEAiBHxBDDPZ8Pw4q966WjUB6wAMgxx04et95AvPPYPukolCAWADlqW9pu3DK7H45nZUpHoQSwAMhxS3evxf0LRkrHoASwAMgVb//0GYZ/+5p0DLqAyBfAyewsT8c7ejLd0/Ek/WXZq5j28zzpGOfE0xQWAA5kHPF0vM1Hdno6nqQYYvjT/JH4bs866Si52n9c9qWofhD5AthwaJun462K2AKaU3cGfvXhnYEfD2ySjiAu8gWwZPcaz8Y6lJmGb33629BNO47utRYOpZ/MkI5yhkW/rpSOIC7yBfDxJu+eePvuz/M9v+bgF/Hi6zF/uHSM/4qfnnDmIgvAOj/16om3k1a/78k4fvXezwsweOkU6RiWjzZ+FanrMecS+QKIG/HdP10fI/7b//u9P7k+jt+N/O6fmLxmumiGrFg2hiz7u2gGv2ABAJi2YZ71Kiy3HMg4gie/nuDa9oPmkS/H48VV08TGH7X8X5G7GHsuLAB1Pnjf/L/iYEaa49vOjmWjx7zh1oUwyhH/vOOFqH/5nOcvIJ21xcSwZa96OqafsQCUTUd+RZfZzl+pjn/J+Wqt3MVPBbTpPbFm/0ZPxpuzdQnumDPIOgWgHCyA0yz6dSVumPmkI5ODjmdl4g+fD8XLaz90JFtYfbdnHZq8ex+eXvwS9h0/5No4L6x8B51nPW3NS6D/jwVwlngJXDGtBxbuWJHvbSzb/SOufv8Baz48XVj8NGD8yrdR9Y1ueGrxRGw/usexbcfP9a+f8ai13ajegj2fpFgsZm8Dk1s0jH/OjiXyiSQk4Y4abTHoyvvQqFzNhH4m/mUbu+JNvL3hM+vcn/InOSkZ11/aFHfXugGdqmioUKRsnn4+/tkv2L4cxprp+HDjl2H+t2gU67X4BzsbcKIA4ntHqO9vNbmoNm6q0gLXVGiA2qUro2RqMWTHYtbMvvUHt1gPxpy9xeRtPpfUKV0FrSs1Rt3SVVGrdGVcVqw8SqUWQ/GCRXE8K8O6brM5bSd+PLAZS3atwdytS7H3eCReZFor1muxrdsZThRAcQCHrV+aROSV+I5bMtZrsa1bV/avAehmPMALtrdDRHnxgtr3bHHqIuAzACY6tC0iOr+Jap+zzf4pQNJpR/6GpgF4EUAz+9GI6CzLADwB3TRP/YHd/dfZ24A5wZoD+BMArrQgcsZOtU81P33nd4KzRwCnM7QSAAYCeApAqq1BiKIpE8DzAEZBN3OdnWZ7/3WtAE4xtOoAxgPoamsgomj5EEAf6OZ516r7vwBOMbR2ACYAaGBrQKJwW63O8+cn8pf9dQ3gfHRzHoAmAB4BwJfKE51pv9o3miS68zvBuyOA0xlaGQDD4rUAoICtAETBlhXfIwAMhW4eyOsPB+cUIDeGVk9NIupgKwRRMM0F0Bu6uTa/Gwh2AZxiaF3UhcLEVt0QBdsGdYHvI7sbCs41gPPJ+SDqq9lN3r6pg8g7R9R3vL4TO78T/HEEcDpDqwBgJID7ucCIQiK+k70GYBB0c5ejGw7FKUBuDK2pmvPc0p0BiDzxNYDHoZvL3dh4OE4BcpPzgbUGcBeArdJxiPJoq/rutnZr53eCf48ATmdoRQD0U+dPRdwfkCjf0gGMBTAGuun6q6DDewqQG0OrrD7cO70blChh71i/pHTTsyPWaBXAKYbWSi07bur94ES/sVxN3/3K64HDew3gfHI+6GYAHgCwWzoORdZu9R1sJrHzOyGYRwCnM7SSAAYDeBJAQdkwFBEn1AzWkdDNw5JBonkKkBtDq6nWTt8sHYVC7WPrGRe66YuXC7IAzmZoHVQ715OOQqGyVs3bnysd5HTRvAZwPjn/QI2tyRdAnldXEZ3lgPouNfbbzu+E8B0BnM7QygEYDuAhLjumPMoC8DKAIdDNfdJhzoWnAIkwtIbqtKCddBQKhHnqcN/Wa7e8wALIC0PrqpYdV5eOQr70i1qmG5hXOvMaQF7k/MPWAzAAgO23qlBopKnvRL0g7fxOiNYRwOkMrSKAZwH04LLjyIp/+acC6A/dDOR7LHgKYJehNVPTijXpKOQpU03fXSYdxA6eAtiV8wVoCeBuANul45Drtqt/65ZB3/mdwCOA0xlaMbXsuC+AwtJxyFHHAYxTy3SPSodxCk8B3GBoVa0vCtBdOgo5YppV7Lq5STqI01gAbjK0a9VjyRpLR6F8Wakex/WldBC38BqAm3K+OE3VTMI90nEoYXvUv1nTMO/8TuARQKIMrZQ1LRR4jMuOfesEgJes6d+6eUg6jBd4CuA1Q6utphV3ko5CZ5ilpu+ulw7iJRaAFEPrqJ4/UEc6SsStU+vzZ0sHkcBrAFJyvnCNrN86wEHpOBF0UH32jaK68zuBRwBOMLSL1bLjnixV12UDmKKW6Ub+wixPAfzE0Bqp24ZtpKOE1EJ1W2+VdBC/YAH4kaHdBuA5AFWlo4TEJgBPQzfflw7iN7wG4Ec5X9S61ssggdBMOxVwVH2Gdbnzu4NHAG4ztEpq2fG90lEC5nW1THeHdBA/4ylAUBjaNQAmAGguHcXnlljveNDNb6SDBAFPAYIi5wutAbgPAH+r/dYO9dlo3Pm9wyMACYZWHMBAawILUEg6jrAMNaFqFHSTj2nLI54CBJmhVVN3C7pJRxEyXV3d3ygdJKhYAGFgaNep+QMNpaN45Ad1P/8L6SBBx2sAYZCzIzQB0AvAXuk4Ltqr/jc24c7vDzwC8BtDKwNgKIBHAKRIx3HISQCTAAyDbvJ1bQ7iKUBYGVpddXHsRukoNn2qVuv9KB0kjFgAYWdoN6kiqC0dJY/Wqx3/E+kgYcZrAGGXswM1tK6WA4el4yTgsMrakDu///EIIEgMrTyAEQAe9OHbjOJfpFcADIZu7pYOExU8BYgiQ7tC3TZsLR1FWaRu630vHSRqWABRZmi/V+8vqCKUYDOAZ6Cb04TGjzwWQNQZWhH1JqN+AIp6NOoxVTzjoJvpHo1JuWABUA5Du0ztlH9weaS31Ft2trk8DiWABUBnMrQW6m3HVzm85W/V23QXO7xdsoG3AelMOTtocwB/ArDLgS3uUttqzp0/fHgEEGaGVkI9Uqs3gNQ8/nSmegHKSOjmEZcSkk08BaALM7TqajbhLQn+xAw1i+8Xl5ORTSwASpyhtVe/1Ruc42+sVq/X+tzjZJRPLADKG0NLAfCAentuPfWnawG8DOBV6OZJ4YSUB3b33/8XAAD//7NTZz+b5+k2AAAAAElFTkSuQmCC;" vertex="1" parent="1">
          <mxGeometry x="440" y="219.5" width="110" height="110" as="geometry" />
        </mxCell>
        <mxCell id="bXPCxXU-g-IQLhuPD34G-8" value="NGINX" style="text;html=1;align=center;verticalAlign=middle;whiteSpace=wrap;rounded=0;fontSize=18;fontColor=light-dark(#1a5fb4, #436697);" vertex="1" parent="1">
          <mxGeometry x="465" y="338.5" width="60" height="30" as="geometry" />
        </mxCell>
        <mxCell id="bXPCxXU-g-IQLhuPD34G-40" value="" style="shape=image;html=1;verticalAlign=top;verticalLabelPosition=bottom;labelBackgroundColor=#ffffff;imageAspect=0;aspect=fixed;image=https://cdn1.iconfinder.com/data/icons/unicons-line-vol-3/24/docker-128.png" vertex="1" parent="1">
          <mxGeometry x="552" y="352" width="88" height="88" as="geometry" />
        </mxCell>
        <mxCell id="bXPCxXU-g-IQLhuPD34G-2" value="" style="rounded=1;whiteSpace=wrap;html=1;container=1;fillColor=#dae8fc;strokeColor=#6c8ebf;strokeWidth=3;" vertex="1" parent="1">
          <mxGeometry x="120" y="200" width="240" height="240" as="geometry" />
        </mxCell>
        <mxCell id="bXPCxXU-g-IQLhuPD34G-1" value="" style="shape=image;html=1;verticalAlign=top;verticalLabelPosition=bottom;labelBackgroundColor=#ffffff;imageAspect=0;aspect=fixed;image=https://cdn1.iconfinder.com/data/icons/unicons-line-vol-3/24/docker-128.png" vertex="1" parent="bXPCxXU-g-IQLhuPD34G-2">
          <mxGeometry x="152" y="152" width="88" height="88" as="geometry" />
        </mxCell>
        <mxCell id="bXPCxXU-g-IQLhuPD34G-42" value="link: innhabit_server" style="text;html=1;align=center;verticalAlign=middle;whiteSpace=wrap;rounded=0;fillColor=default;" vertex="1" parent="bXPCxXU-g-IQLhuPD34G-2">
          <mxGeometry x="33" y="200" width="110" height="30" as="geometry" />
        </mxCell>
        <mxCell id="bXPCxXU-g-IQLhuPD34G-3" value="" style="shape=image;html=1;verticalAlign=top;verticalLabelPosition=bottom;labelBackgroundColor=#ffffff;imageAspect=0;aspect=fixed;image=https://cdn2.iconfinder.com/data/icons/boxicons-logos/24/bxl-django-128.png" vertex="1" parent="bXPCxXU-g-IQLhuPD34G-2">
          <mxGeometry x="24" y="30" width="128" height="128" as="geometry" />
        </mxCell>
        <mxCell id="bXPCxXU-g-IQLhuPD34G-7" value="Django" style="text;html=1;align=center;verticalAlign=middle;whiteSpace=wrap;rounded=0;fontSize=18;fontColor=light-dark(#1a5fb4, #436697);" vertex="1" parent="bXPCxXU-g-IQLhuPD34G-2">
          <mxGeometry x="64" y="158" width="60" height="30" as="geometry" />
        </mxCell>
        <mxCell id="bXPCxXU-g-IQLhuPD34G-44" value="&lt;div&gt;link: innhabit_nginx&lt;/div&gt;" style="text;html=1;align=center;verticalAlign=middle;whiteSpace=wrap;rounded=0;fillColor=default;" vertex="1" parent="1">
          <mxGeometry x="429" y="400" width="110" height="30" as="geometry" />
        </mxCell>
        <mxCell id="bXPCxXU-g-IQLhuPD34G-17" value="" style="image;aspect=fixed;html=1;points=[];align=center;fontSize=12;image=img/lib/azure2/databases/Azure_Database_PostgreSQL_Server.svg;" vertex="1" parent="1">
          <mxGeometry x="440" y="500" width="88" height="117.33" as="geometry" />
        </mxCell>
        <mxCell id="bXPCxXU-g-IQLhuPD34G-12" value="" style="shape=image;html=1;verticalAlign=top;verticalLabelPosition=bottom;labelBackgroundColor=#ffffff;imageAspect=0;image=https://cdn1.iconfinder.com/data/icons/unicons-line-vol-3/24/docker-128.png;aspect=fixed;" vertex="1" parent="1">
          <mxGeometry x="552" y="612" width="88" height="88" as="geometry" />
        </mxCell>
        <mxCell id="bXPCxXU-g-IQLhuPD34G-21" value="PostgreSQL" style="text;html=1;align=center;verticalAlign=middle;whiteSpace=wrap;rounded=0;fontSize=18;fontColor=light-dark(#1a5fb4, #436697);" vertex="1" parent="1">
          <mxGeometry x="454" y="630" width="60" height="30" as="geometry" />
        </mxCell>
        <mxCell id="bXPCxXU-g-IQLhuPD34G-37" value="link: innhabit_db" style="text;html=1;align=center;verticalAlign=middle;whiteSpace=wrap;rounded=0;fillColor=default;" vertex="1" parent="1">
          <mxGeometry x="429" y="680" width="110" height="30" as="geometry" />
        </mxCell>
        <mxCell id="bXPCxXU-g-IQLhuPD34G-20" value="" style="shape=image;html=1;verticalAlign=top;verticalLabelPosition=bottom;labelBackgroundColor=#ffffff;imageAspect=0;image=https://cdn1.iconfinder.com/data/icons/unicons-line-vol-3/24/docker-128.png;aspect=fixed;" vertex="1" parent="1">
          <mxGeometry x="272" y="612" width="88" height="88" as="geometry" />
        </mxCell>
        <mxCell id="bXPCxXU-g-IQLhuPD34G-22" value="" style="shape=image;verticalLabelPosition=bottom;labelBackgroundColor=default;verticalAlign=top;aspect=fixed;imageAspect=0;image=data:image/png,iVBORw0KGgoAAAANSUhEUgAAARgAAAEYCAYAAACHjumMAAA4E0lEQVR4nOzdd1xT5+I/8OeohQQQApogIhrASVgulgrBuretCY5aQb0dQCvQam1tS2gvVqUiVqHLAVpbIVTBiQuCypAhM1FUIMhOlCVb5fxeOL6/e3ttZeTkOSfneb9e9x+vPudTEj+e8TznGQgQpIeGjncbMmtJ5O6ZyyN/YDBYLYrqm3lPHrfisHMh5IXBDoCQH0OHDSa5bl1lNy0gDADAefnrOA7yLkUL1hVLY/PgJkTIChUM8re0GQZgtO2amfaLgkX6GGvGK38TDtobFNLI5DM+31XJk++rPSRCaqhgkFcyHuE0hL/8wC9GHN5bPfwjTbL08A3JZ31jCY6GUAgqGOS/DGaN0nGeH/aZpdUyPwCAfm//fGuz4mL6xS1fF+VE3SAmIUIlqGCQ/2Pr4j/DeV7owQEYGNPPoZ7WdJUfkITP+6xeIWtUUTyEgtBTJARY8AQ2C9ad/XGMtccuDANDVDDkAD3MYIqVs88aHR12R51CWtDZ3vhEBeMiFIPOYGjMkiewcZq3K1CfxX2byON0tDWU5KeFfZJVGBEHlEoiD4WQDCoYGmLosN9Ytj4pxNCYt0mdx21uLL98/VLAxtK82DJ1HheBB10i0YgWw2DQ9Hm7PdyW/XpMjzVyMYTjW4yeIPQ05PD0Gx/eyW1rrm1TdwZEvdAZDE1McvYfa+u29TBTl+MCO8sL1bmpoT5pWTtOossmzYUKRsON4QlGTHDw3mZqwd8IABgEO89fPaqXX7x2we/jMml8EewsiOqhgtFQTF02mLFo/yeW1sLt3VcnsPO8RkdNRdr280eX7mhvVXbCDoOoDioYDaOlbQDG2q2ZZbcoOFAfY02Hnac3OtoabuUVHxMVxG+L7Wxv7IKdB+k/VDAaortYxtitedP+ebG8et0QRXS0N+Tl3gj7uvB62OnO9ka0WpvCUMFogGfrht6L/8UI4/R03RAltLUqEuIPuq+pV8jqYGdB+gYVDIXpsUbpTl8QtsV8wjJ/AMBg2HmIgANQLS0R78o5ufnX5oayFth5kN5BBUNRti7+bs7zQn9VwbohSugaCIrSzgR45afuSYOdBek5VDAUY8kT2DrN3xWob8DVqMuhHsIf1OT+kS3ZHlgiFd+DHQZ5PVQwFKGrP0J7oWfCriFs3sews5DA03u1EtG1Q8Lg9lYluglMYmipAMlpMQwGuS75yXvm20f+1NHlzIKdhyQGGOlxZ05w/Nfsx+2P7jfW3Sl5+qQDdibkFdAZDEl1F4vTrGDBaLs127QZLB7sPGTWVC9Pyr0eEigtOnYNNKLXz5AJKhgSmujsP9aOXOuGKKGuVhqZeHbjR8rS9GbYWZDnUMGQyBgrwYgJjuRdN0QRyts5kdtTzvntRy+5gg8VDAm8WDf0qaW1MJgC64Yooa1FkXbttO+6Yqn4LuwsdIZu8kKkpW0AJkzeMMt9fVyUifHkjejzUJ03tHTNLK0F75ua8zmNTfLs5no0SQ8GdAYDibGZE5v/r/ifjTDOcthZaKDlbkHMpssxHgdhB6EbVDBqZsi20ndYEf6pxXC+n6ZO7yer7sum7OTtXxWk7b0COwtdoIJRkxfrhj4zn7AMFQtkzfXyP1MubPmqRCq+BTuLpkMFowZ0WzdEEV0VJZKdSX+u/aq5qeIp7DCaCt1UJJAlT2C74N2zEWNsPHaqaL8hRHUwfUPuDFuXgHcAAHV1SlnBk8etsDNpHHQGQwBd/RHaizwTdhmhdUOUMQAHWeejBe+WSGPRZZMKoTMYFULrhqgLx8Dw0dZCL6Nh9oPqFQVZbS3Kx7AzaQJ0BqMiE138x9m5Ppve7ww7C9JPOFBmSkSeWYlB52BHoTpUMP30bHq/k/eXw835GzA0vV+TdLU3K85dv7gl8G5O1E3YYagKFUwfjeYJRlg5en9pas7fQKd1Q10DQHnHI0UdU5djBzuLmjytq5WevHF5W5D8dnwh7DBUg+7B9BJTlw3clx/+dOqbonh9Q64jAGAA7EzqUlcrjTl1yH1eQca+H/T0RjQZGfPcafAdGsDU41iNsV250YhtVa8sT8/s6GiCnYkyNP3LoTLaDAMwftKGWfNXx0WxTem1bqipXi65cXmbV+o5v++bmyo6H7c3gWJpbHpDrSyKYTpGX585zI4GRTvQyJi3YIz9O4vfGKRbXiVPRq/s7AF0idQDxiOc2Pz36LduCAegJj811C87eUd0R+vf7x9t5+JvN9F16xGmLsdWrQEham4sP305du2H1fLkSthZyAwVzD8w5FgZOLwd/gkN1w3V3SsUh2cnB++tq8l72JM/oMsape06P+xT7oRlmwEGDIiPSAp1xQXisJtXg/c9qMlrgB2GjFDB/I0Zi/evtHbwiejuGdhZ1Km1RXHtUrTQo6o0ubovf54zwsnI/b34A3Q628NxUJ5yxmdFQUZEBuwsZIMK5i8seQI7x7m7Ag0MubT5CwKe7wudn5cW9m1BWtiJ/u4Lrc0wAKNt18xxmBX8DYPJclRdSlJ7/LBW+tv1sz7BVaXJxbDDkAUqmBcsrAW2TnOeFQut9hvqaGsoyLt37NuCU9u6i0Wli/60GAaYvbPfYmtnP5E2kzVRlWOTFg7aq1qkkZnRPt9VyZPvw44DG+0L5tm6Ia+EXUZDabduqLm4MU10NWLp3vZWJaHvrmXosgfN9U36brge7xMafeeaSgvE2yRnfSLaW5T9OiOkMrp82P9Di2EwaNqCsA/HTfT8HAPABHYeNcIftMrFKX94bqmSJ5ep88CWPIGN49xd3xgYcpep87gwtbc1ZKae9/uoKCfqBuwsMNCyYOyd/cfZu26NZOpxnGBnUScMB7eunw/YkJ8Gd3/n6fN2z7F2CfgFw8AomDnU6GkNXn5Asn/eZ/UKGa02bqLNZDHwfHq/2fTF4SFWDu//+oaW7kjYedSlawAok6aHb7sQLfyw/F5CKew89+9dLC4qjTuspzWk2ZDDswMA6MDORLABepjBFCtnnzU6OuyOOoW0gC5bqtDiDEZPfwTmPH/3Zktr4b8xAN6AnUeNHtfcTwuXxG38ul4pewQ7zKsMN3czmSOMiWbqcWbAzqIubS2KgptXd6zLT92TAzsL0TS6YLQZBsDG2W+lo7vo6y4MTICdR52a6uVJmcki/zvZUXmws7zOi21yPUbbrvlSm8kaDzuPmjytrM89mhnvt7W6OLkWdhiiaGTBvJiHMctpVrBIi8maBjuPOjXVyyV510NERYXHkh+3UutyX2vYqDccp2x+Z8zzorGAnUctcNBwTyqOuHk1ePfD6rw62HFUTeMK5sW6oV+MMA5tnlSAl+uGUkI35V7dEdP6D+uGqMCIY6XDX3rgG+ORzpto9CqM6tzUUJ+0rB0ngZLan99/0piCMWRbGfzHfkN6sPOoUV1xoXh/1vN1Qxr1L+D4ievspywP2zcYY02HnUVdmurlF3LSQr6SpUVkws6iChpRMNO9olfZWAjD6bZuqK1ZcfVijHBlX9cNUQFTh41NdN36rt20gNDukxvYedSlTiH9Of6Q+8ftLcpO2Fn6g9KPqS15AruF7579ycxk2rbu7yLsPOrS0daQn3N9h+/l2DVbGx4UkfLpkKo8edwKyu9dzKuWS47qGXEH6rO4toAGTwKZupwpVpP/tWLAcDPlw+KUW0+fdOCwM/UFJc9gdPVHMBasSwgZyuH5ws6iZs33CsRfXzvrs6+9hdjp/WRlwVsxbtq/xFF6jwBdFlF2n6kmSxJ818rzxOWws/QWpQqGocvWcp636/1xdp7bMAwYw86jRm3PFtAd99mp7un9ZNR92cRz9F41daYoBAAwHHYeNWmvkkv2Xz3ls71eKauHHaanKFEwL9cNjZ/o+TlA64aQFwazRuk6zQ/xHj1B8CnAAAd2HrXAQWtJjSQ05XfPHc0NZS2w47wO6QvGZrr/+MnTt0YydTm0OSUGL9cNJQSsz0/dkw47C9kZWrkNXTz/6D5dltlK2FnUpWsgKEo7E+BJ9u8HaQtmNE9g9mJbkPU0mgvxbN2QLDV8V05KyOHmhrI22HmoxMZ5k/tkty++Yepy6PJYG39Qk/vHzaTtgcUyMSlfQk66gkHrhsi7bogqZq+M9hrNezZtgS5PFp/eq5WIUo+s3d7SVEGqd8+Q5jG1FsMATJyxdeWCNadijIx5qzASZSNaU7086foFv7dTznwc1d5K7XkPZFBSGJtbV50bY2RsY8jU40wg0/ecIAOM9LgzbVwDVmJdQPGgNlf69EkH7EzPkOIMxtjMib1gdfwBhh5nCews6oQDUJ2fGvpxdsqO2I4mzZkeTiY8B2/nGYvDj2IAWMLOoi51tdJoSdzGD2sr0qE/bYJaMIZsKwNHQfhmcxP+JlpN78dB3T2peF9OcvAPDzRsej8ZMXTYbzjP3/XheDvPbTR62tRwOzdyx820kB8aq2XQ7uVBKRjarhvCQV2xVDPXDVHBELYVw3bG5o/HT/TcBgDQh51HTZS3bkZuT7+wJQLG5bfar01nrI9eNXNuxCVDfe4cAICWuo8PS1uz4uq5Ywvdc69/f6atuZaST4eGcd1MFq49+8PAgdrltRXplFv/1NaqfCK/FZ9Sr5SKjc2cbbUYBlzYmdRAl21iP89++ubVbS3Km8rKTLXudKC2gvmvdUMYYKjruLBpwrqhISZ2RjMW7tviPDfkiI4ex3nkmLkbh09cZt7ZWpfbUEu9d8zWK2T1d/J/i3rS2SIdweXbAAywYWciGoYBo1HjFq4dbs4f2tgkv9lcr55JeoRfItF+3dAZnx/aW5Uq3W9IXRh6bDBx+laB/bSAH7pPYF7xWzrvFcR8mZLwSUhrUwWEhP2nazACc5m3+4vR1kIRjeZbtdwtiNl0OcbjINEHIqxgnq0bmrvrg/ETPb8AgF7rhiqbpZFZ0T47qLrxlhbTAIyxXuNqP2OzSN+Q6/6639/WoigovBHxddbNsDjQSLkTmmcsrASWk92/CBw6zP4d2A8/1KWtRZGWnbz9q4K0vVeIOgYhP8gpbwbyp/JFhwAA5kSMT1ZtOkB29ZBAUCKNlcHO0leGHCu9OR4xvxpxeL2edl+nkB5JPLPRR1ma3kxMOuK5Lty/lOfo8ysdLpteam4sj0mMXetbKU9W+VwJld6DsbARjJyxKDxkvL3nHoDR5+VAGA7KCjPCv0j6TehdW55GuZuf4PnCQabjrOD331we+TtTj9On9xgzdTl2VvYb/zXYkPu0piw1+8njVspdGpbdPVdULBX/pDPY9Ikhe/xkOjyI0GIY8MZO8lz3BoPV8LDqZu6Tx60qe/eMys5gbJw28acvDLtEo+vYZ8VSkBG+M+d6SCRV1w0NZo1i2E/bvN7G0WcLrtqN0KrzZZHfZMdv+ZWq96AM2VaGM5aEbzXl8j/uvuqHnUctcFASE2Fv97AmTyVnoQNUMUg3bSbLkC7lggPwuLY8bc8f+3k21874/kjVcrF18Xd6N0B+09rJJ1zF5dLNxNbK80evzxVSK2fvKSoeWy3qlbL6UwfdP7t8XDiurUWRCDuPWmDAQpvJ0lbVcCorGLpoqpcnJsZ5Tj3xi0tAvYKaixKHc91GCb8oPT5tfmiaGvaLGue2IDxlyYakEEOOFSUvm+9Kxfd/Dxs7Jz8t7AOAgyrYeagEFUzPVeelhgpiDzi8SYXNzF6FocMeNPuTVP+lGySFQ5hcDzUeWsuUy/90pa9UPn199Go1HldlOtsbn6ac8//5yPdmFnVKaTjsPFSBCuZ1cFBXXCAWiffbW6ee/4SSixK1GAYDpwj3C1b73ckezXIOhbY8AwODbcyFxzw/q5VYT9tEyXe2tDRVdET/YO17/bTPlKZ6eQLsPGSHCuYfNDeWx546xOddjBEGPail5tohSxuBxepNdxKn2vjEaDNZtrDzdGPqcdxmzAu7unbL/UhDthUlt5opyIjIPnbUYX5+auhSHF02/S1UMK/Q0daQd+2cn/vR70cKKuXJNbDz9IXRMDujJeuT9s0Rxtxi6nFcYed5BUxvsNk6j4+l0inL96xl6LCpN7lNqQQp5z85FRNhb1NZKum+bKLlTg//BBXMf+hoa8jPTBKt+C2UO6kwba8Edp6+GGJiZzRbGCPy8Mm9Z2rO9yX7PA4MAJOpk/yOrPtScWuKe6CQqUe9+W11NXl1pw65+176Q2hRWZd7EABAycfyREAF81zzvUKx/+9hYydlJQb92dneSKrXDvYEQ48NXObvFgi9c6WjbQSBVNvlcsBTMG7qTFH0ig+yky2tVoyGnacv7snE5af2TNyYej5gcluLIh92HjKge8G0VTZLI+IP8nmXooVhVJwQpsU0ALyp3q5vv5eRaOcSEPM3ixIpQ8/AzHXOSnHOHN+kXcMs3Ci5hi0vdU+e+CcHh8Ib4R9iOKDkejRVoW3BtOkA2YXjgsmndlr7UHVRoiHHSm/5hpTjrkvCk3uyKJEyMKBnaczfvMxTUjBlZuAs2HH6oqWhrOPaGd+f/tjHs67DFSdh54GFdgXToQ3khTfCvf/8N3dyiTT2Fuw8fTGYNYo5Y9F+n1W+UqmRMU+d81nUCsMAeypflODhWxhrPn6pDew8fVGvlD2K2z72raunfea2tzXcgJ1H3ehUMI9r7qeFngx5Pr3/UX1ZO+xAfWHr4u+yNkCebe3osx/HwEjYeQiHgYFGxry3562Jy3rrvdTvDEysKLcVSUd7I5BmRFz8Y+9Yl9ICsTfAATXfadEHGl8wOABP6hRScdIJzyknf3X5pF4po+SrBCx4Aqu1/qXR0+aHpuDET+8nIy1jM+etb3ul5E5buP9dLYYB5da9tbcouxJihD/GHeJbV7VIf+y+UoediWgaXTBN9fIriXGek6P3WQtv50RR8q7+cK7bqLUBpcfnroyR6hlxhbDzwKbNZI21dfKJeidAnmvjvOlN2Hn6olqeXBG/w9o7/iDf+lGDPB52HiJpZMHgAFS9WDc06042NYuFocseNPfT1IClGySFeoZqXTdECdpMFm/6grDLaz+9Hz3M0o16k2cAAFXy5JLfdpsvK0gJnQsAKIOdhwgaVTA4AA/vFYpFMT9qwLqhTXeyLQycd9NqW5c+0DMwEy7zlBTOEsZsHcwaNRh2nr64nvDJxd8O2tuVFIq/BAA8hJ1HlTSmYJoby2NPH+RbX4oWBtVV5UHf0a4vnq0b8iPXuiEqwADgjLERfLcmQJ5r6+LPh52nLx7J8xovRAuD4w/xbZobyzXmsbZGFMztm5Hfa8i6odtMXVKuG6IEDAMW0+aHJr0TUCo24bpR8glbVWly9dHvR76lrM6l5FKVv9KIgnnUIG+CnaEvtHXYwGXeboGHT67sxbqhN2Bn0gSDDbkrlm2QFL4pjPmIocOm5He8s71BIxZOUvKHT3VaTANg7eDNX/FhhsRu2rPp/ZScEk9yg8faCH5Y43/nBs/Be74WwwB2HlpCBaNGz9YNOXi7CT7MTZqxODxJn8V1g51J02kxWFNcF4efWxsgT+E5eM98AxWNWqGCURNDttXg5RtTjrsuDpfoG3IpeSOSyrSYLBfXxeFX3tqY8geLbaULOw9doIIh2It1Q76rPpIWGnE0d90QVRgZ81a+9a+UghkL92/QZ40i9btyNAEqGAK9WDd009rRZx8t1g1RhDaTZW7t5HPgrQ8yUu2d/em47EJtUMEQwJInsF7rXxrzYt3QeNh5VOApAKAVANAAAGgCAFByoehfMXU5k53nh+Yv8Ur6yYTrZgI7jyai3IIxMmPosN9Yvj5pJ8uY5w87Sx+1dg0EGaV54mstTeWymvvpdwAAFfVK6cM6hey/XsZlwnXT0tHlGAMARlnaCsZp6bFtRozku2EA2FLqHy4MDDK14L9vaiFZd68wJuBSou+PQEm9GeBkhQpGBbQYBgNtlgavsLNc86U2k2UNO0+P4eDhg5rcpJqKlMTyu5fSHz24W/BQKevR/ItqeXInAKC8+3/FUvH1l79uyLbS4ZhOncIdu3A6e8RUvp4ht7t0qHCvgzHaWhjBMXVYln895MuCjIhM2IE0ASqYfuguFrulwW/ZWK75SpvJosoLkRor63NjixLDjty/c+56W6tSpe8frlfKWuuVsqtFuVFXAQDbDTlWOiMsZ8+zdfbz1Dfkzif7d07fkDtn+uLwOXYzNp9KS9jydbFUTMlN9siC1B82mVnM9bd0nbg1kqnLocYGYjhoulcYsz21cE9Yiyy9Q12HrVfIWusVshMFaXtPGDsLTPmTAwONjHkbyH4ZNZjFXTJnZcyS+lpp6Okj8z5vaarohJ2Jikj9IZPR0AluQ5d4Je2fOz30FhXKBQeg8nZO5Obofbzhl2I8dqqzXP6qNk1cGb3f+r2LfwhHV5ZK9lHhZrGhMS/g3c3ld6fP37Nei2FAvb2bIEMF00PP1g3N3+0hWC0pNLXg+1Bh3dDDh9J9R0PMLJJOeH1fp5S1wM7zUrFMXHrqkPvHl48Lx7Q1KxJh5+mBkTYufgdXbbpz3tjMCT1t6gVUMD3EX/rLDjuXgONUWDfUNRDcyUwSLYgJs/6YzKf2d6Xiit/3jp1dVBIX0H0JBzvP6+jocea+9V7aXRsnar5JDwZUMD2kzWRxYGfoiXql9OhvO8x4WYlB52Fn6YnO9sauxMPL91yIFVq1tShuws7TA7raTJYZ7BBUgQpGc9TL0sO9TvwybV1LUwXllvqX5Isrzxye41ZZKvkB4GjrVU2BCkYDtDUrsi8cW+aQfNY3srO9EYedp68e1OY1nzrkvikrSbQYAFAHOw/Sf6hgKK6tRXFZ/ONkl5Lb8fdgZ1GVzKSg8xePC6fiOKiAnQXpH1QwFNbR1pB2OnLOCjLfyO2rYqm4JOmk51wcB5R8DSryHCoYisIBuHf+92WLHtbkaewugUU5UbLMRNFyAIDGFShdoIKhoI62Bumpg/wZ1fJkjb9PkS0JSs9MFC3AcfAIdhak91DBUE/71bh/eVRRdAeFvshKCrpSkB1O1RXqtIYKhkpw0JGZKFp2TxYrhR1F3TIvbDtYWSIJg50D6R1UMBRyKycyICsp6ALsHDB0tjeCy9FC/wfVudGwsyA9hwqGIpobyy/cuLglAnYOmFpblSAlwe/jF2/WQygAFQw1VF6KW7umrQW9aa2qJFlxKz3c48VrPBGSQwVDAYU3wr+puZesUZui94fkrO/Fulrpcdg5kNdDBUNyHW0Nd29khhyGnYNsrl3fFoTmx5AfKhiSu5t3bEdnbdlj2DnIpio3/i46iyE/9MpMMsNBcW5KyO+wDq/FMMCGDrPnDjGxH6PNYJkAAPRe3PtoelQvL3/UIL9VJU9+ACtfbkrI7plvRb6D/qEkL1QwJJaRJNr4qKFMra+VHGw4SnusveeK0TzBckNjnhsGwNB//AM4KK6SSy7dLokTl6ZFJnZ2qG/lQlFOVL799M0/GnF4Pmo7KNIrqPlJqrVZkZWdFCRR5zFdFuxe9I6/vMBhpug3I2Pe268tF/BsXyHL4eb8D2a+GXZltd+dyxZz/S3VEvYFSdxGdC+GxFDBkFT5nXNqu7E7nOs2am1Aabydc8BpgIExfR2Hqcd5c870UNkyr6QdDB02Q7UpX622PF2pbJPHqeNYSO+hgiGnp7fyIsXqONAUfqDbkg2SQj1D7hJVjIcBoGViwf9s/eeKrOFct+GqGPN1SjIi0exekkIFQ0J1tdIT1SXJhM+qm+IeKJg6U3Qae37zVqVwAHjzVsclDue69fmMqKfuZEUmoNm95IQKhoRu3Tx4gOhjTHEPXDx1pigGYGAwUcfQZrLGLVkvSR3OdSP0JdnNDWWtNeVpajnjQ3oHFQz5KO/k/naFyAOYmLuZTZ0pOkjkMV7CMDB03pq4P7QYBoTuI3Un97coIsdH+gYVDMk8qM691N6qJGydDUOHPWCmV9xvAAA2Ucf4K20Ga5q7V1wgkccokYpTAHqHL+mggiGZ0gcpqUSOP2NpuLc+xnIl8hivYm7C/5TLE5gTNX5bixJUyiVpRI2P9A0qGJJpupNJ2OZjw7luxpYTBP8mavx/gmFAm79o/89aDAPCjvGoQZ5N2OBIn6CCIRe8pV6eT9TgNg7eXhgGiPsb/hpMPc7sMfarnYkav7lOnkfU2EjfoIIhERwHRZVlyYRsUq+jwwamo+e8Q8TYvWFhLSQsQ6VcUkTU2EjfoIIhEUV5Wi5RY4+ze2eiNpPFI2r8njIdyV+qrz+CkLHrlDI5AKCDkMGRPkEFQyKPmiruEDX2yAlLVhI1dm9gGDA1G7dkKhFjt7cocRwHxUSMjfQNKhgSaW1WEHaKb2LOX07U2L013IK4LB0tittEjY30HioYEqmRJ9cSMe5wrttgDPR9EaOqjbYSOBA1diVBP0Okb1DBkAgOAFEvbyJ0qn6vYWAcgaNDewEW8r9QwZBLGxGDauuwhxAxbp9hYBhjlBUhQ+ME/QyRvkEFQy6EPAExMuZpEzFuPwwywthErU1CT5FIBBUMiWAEfR4DcPLtIYQPJCYTUT9DpG/Qh0EiOACEnGlUyiVNRIzbVzgOGquLk7sIGRsAtbxJD+kZVDAkggFA1L2ScoLG7SvCHsdjABgRNTbSe6hgSETXymkYEeM2KGQKMj1dqa5JI2xBp57+CEJ+hkjfoIIhEWPMjJDHya2tSlBXK00iYuy+qLx1IZGosTlmzuR6JE9zqGBIBOvHG/1fp7z4wkmixu6lzvJ7F84TNTiGgbFEjY30HioYErHgCQhbjHgr6+ApgAP17Yr2N5rq5Um15enNRIw9jOvG6j6JIWJspG9QwZAIBsAkhi4bI2LseqWspV4pjSdi7N64f+dsDFFj6+qx0dkLyaCCIRMMDDZiW1kQNXzO9ZBfiRq7J3Ac1OZcD4klanxDNs+aqLGRvkEFQzLDuXwnosYuyom6XqeQHiJq/NfoykoSrW9uKCNsTs5wc+J+dkjfoIIhmeEWxP4lOXNl48c4DqqIPMar1OGK+KykoHNEHgMVDPmggiGZocPsCX3jf4ssvSUrUfQxkcf4KxyAxmsn3vuUyGMM57qZAACIWUGJ9BkqGJLRZrJsLXgCYt4p+UKWJOjPylKJWjZee3a8gvBNVbnxJUQew9rJR4ABMJDIYyC9hwqGhGycvL2IPkZKgp9fW4viLMGHeVJZItmaf3obobsuamkbAHMrwXoij4H0DSoYEjIZxX+focsm9LN5WJXXHPvj5MV1QHGcqGNUl0j8Th1239nZRuz0G7PRs20GYMCO0IMgfYIKhoQwDJiOmrranejjNDdW4CeDx757r1D8GcDBI1WN29HWUJyZKJoXd9g9XFVj/pORYxcK1HEcpPdQwZDU5Il+H6rjOJ3tjY8vRQt3xR/i2zTUSn8GALT2eTAcVN0tFH8mjrC3y0oKuqDSoH/D0NhKe9wkz43qOBbSe6hgSMrAiLvU2FmgtoV7VfLksj/2W3+QIBaMr1NIfwMAPOnxH8ZBQ0WJ5Lvj+3ljLkcLdz1qKCNk87hXmTBxw78wAEzUdTykdwbBDoD8rUH8yYE7otPEa9R50NL82PLS/Ni1hlZuH40wsHc1MZs2maHHHjuUbTVMS5ejBwDoalRIG1taleX1CuktRUXmjQeVmekPlbLH6szZbTBrlL6tS8A2dR8X6TlUMCRmZMxbbcFbsbNEGkvYftV/p16W3FAPkk8VpO09pe5j95T99M3rMAyg97+QGLpEIrlpc0PQv9CvMNhwFGOMq08A7BzIP0MFQ3J6hlyBJW8F9D2lycbOZbOXdgfgws6B/DNUMOSHOc0N2amtz4adgzRMuW5DbJx80JkdBaCCoQB9Q+7C2R4xX8LOQQb6rFHasz1iTnX3DOwsyOuhgqEIs5H8b3kOH06DnQM2xzm7Aph6HBfYOZCeQQVDIY6ztv8y4vlrIWmJtyjQZbSNEF0aUQgqGArRZrKs3FccjWPosGk3vWA4183M1VF0FgCgCzsL0nOoYChGz8DMbYnnxd2wc6jTELaV3rw1cdEAANqevVEVKhgKGmJi//FsYcxW2DnUgaHD1l6wLuGcNoPlDDsL0nuoYChqtI3gO/flhzV6opkWw2DQYs+Lv+kZmM2AnQXpG1QwFDZ+kudu9+WHv9DR0bw5Mgyulc7S9ZLYoSb2K2BnQfoOFQzFjZ/kGbz8w+xwhg6xL6hSJxOu29AN66UpQ03sl8LOgvSPxnwp6UyfZea9yPPiiRFcNyPYWfrLZqr3pPmr4652YcAedhak/1DBaAi2if3SxRskUpup3hNhZ+mr6V7R66YvCc/QZrImwM6CqAYqGM0ybPri8KtzPGK+1GONosx8keFcNzMP38JjNhbCQwDtDKBRUMFoGgzoWVoLvl3xfkaapfUKwrahVZUpbwa+uWSDJNfImLcafR81D/pANRRTj2MzWyjOmeMREzKc6zYcdp6/Gjdx3WSPjwrFU/miCxgAlL93hLwa7aac91VWoiiQuSQcN2Lz1gIA3oCdpycwDOhbWgs+tbQW+DyslYrzrof8VJQblQYrD0OHPdDa0Xspz9HbR0eX4/7sfAvRaOgMpoeq5Mnl0T9Yb7iaLpqFA/AAdp5eYg4x5r078+3I1A+C8VSeg/dMdQeYK4z+wPNzRdnUmaI/dXQ5M1G50AMqmF6Sng26euoQ37ayVBIBAOiAnae3sC7gbGkteE/dx7WwEX6NoXe40A4qmD6oKk2uPnXI3efqGR83gINS2HkQterqwoECdgiqQAXTD9IbETcO7+RMKL0dtw0A0Aw7D0KorofVuUcuHheOvykJOgc7DFWggumn9hZlR8Kx5dtPnBOOaW1WJMHOgxCiLDNRNC8mYuK6Yqn4LuwwVIIKRkVq08Q1f+wdO/tWSdynAAcNsPMg/YcDUFOUE7np8A7OuKykoEuw81ARKhgV6mxvfCo5vHz38X28URUlku+7fwl2JqRPKmV5kT6R33FGJp7w+qH7LBV2IKpCBUOAeqWs6fRh980XUgJs21oUObDzID3WVSmX7DoSYmaRHOsV0d6qVPt2uJoGFQyBShL2FP35s4NLYYl4Ew7QkwcS62ppV5xL/NNz2qmD7p+1NFWgM08VQQVDsEf1Ze3XDgt/OHWIb9fWorgBOw/yPyoyr4jmHwk2XliUG5UOO4ymQQWjJlWlyTW/RzrMKLwR/mH3NT7sPLSHg5rbNyP9Dx/kjc6SBF2EHUdTaUTBWFgLHHT1R+jAzvE6nTVlj6+d8f3p9EG+fXNj+Z+w89DVwwfSsCPfm5knnfQKa5fL0A1cAmlEwQzh8Bat/bT8jvOiPV4MXTbp17hUyJMfHP1+5IrMJNGSNh1wC3YeumhtVlxKvOI3I2avtX9LU0U77Dx0oBEFA56vHDa1d/Q7tNK3MG/ym4HzYOfpiazEoNPHv+JYK6tzr8DOosG6OpoV5xNPeLpE7TSeUyTZex12IDrRmIJ5ianHsXHgi86/s/n+MUO2lSHsPK/T3qrs6mxvaIKdQyPhoCIzUbTo0E7jBUU58F5TQWcaVzAvDdY3Wy30k+ZNdg9cBjsLol44AHW3cyIDYvbxxmQlBZ2HnYfONLZgug3oAmYOM0Un1356/+QwSzfN2zwI+R8tDeXiuIN866QTXnseKmXoPgtkGl0wL+kZmC1bvk6SN2PRfh9do1HasPMgqtfWrLiSetbP9cjukcIaeXI17Dz9YcETjB7M4o6AnUMV6PPKTAyYWDv67LfkCTyvnfb1KJaJS2BHQlSiJjNR9F5WUtBp2EH6S1d/xKA3BUcDTbn8zzVldwX6FMwLTD3OlDmrYmQVZZI9kljPbx41lLXBzoT0Ho6DhqLcyB25KSH76mtlrbDz9AdDhz1o0tJdG2ytPL/AABgJO48q0a5gXtAeMYq/VeCdKyjOO/Z12pVtxzvbG7tgh0Jer7tYSqTiiPys8LCa4mQl7Dz9ocUwGDRjftj7YyZ6bsUwoBGXRH9F14J5RpvJsrRy8jlmbiNYd/7Y0rW15eloQSKJNTeW/3nlz7UfVZVS+x5LN2tn/wlTXLceZupxHGFnIRKtC+Ylpi5nzlvvpd0tk8X9OzH+vTC0TJ9c2poVV7Kub/93YcpeCews/WXJE1jw5n7xpamh/buacp/ln6CC+f/0R1kt2+U5Ydnan77GbGGHQZ5NaGnILAz3zIrxjYcdpb909UcMmv320UATC825gdsTqGD+AsOAOewMdIcD0FRSKP6p4Eb4nmp5cg3sPP2hxTAYONldtN7exW8bAGAU7DzqhgoGIZXmxvIz1y8G+JTmx96HnaW/Jrn4j7GdsfUQU48zHXYWWFDBIKTQ2qK4djM34puChKDLsLP0l4WNYJT1VO/PTc35G+j+d4zW//EIfB3tDTnZV0QBeekacAPXWmDOc/DeZmrO96TTfZZ/orKCqVNIi3AAqjAAhqtqTESD4aAhr1z8+c1jPr+0tyopPQeJocseOE8Y87WJBX8bKpb/prKCKZHGymL28cZOXRG+1cKEvwUAoKWqsRGN0nSvUPyLNCM8lOrzWbQYBgNtp/kts3X0+0KbyZoEOw8ZqfQSqU4ha7kQ4f6VtaP32RkLw48DjH53zZG/19xYfvb6uQCfUllsGews/WUx19/S1f7ZDVxX2FnIjJB7MIU3ItLv1UrG8V2CN5tPWPYZAECPiOMg1JGY6Le8KGkv5XdVsLARmFlPfXafZT0A4A3YeciOsNc1tMtlHQm/L//3iXPC8W3NCsrfwEP6h+rlwtRhD5jtEf35XGFMsak5/31ULj1D+PtgatPElb/vHTtbmhHu1aENKD+3AaEXLYYBxlsYuGiV35200dbC7ahYekctL5zqbG98cvW0b6R4O9eqslQSCgBAa30QUtNiGAxwcA9c/k6APMvVSXRam8lygJ2JitT6RrtHDWUtpw65f5J2LsCurUWRr85jI0hPWc73t1y96U7i5JmiE7R7OoSBnLYWpcrerwPllZm5aXtuxf7k4FRSIA5AezYjZGHKdWMvWZ8UMccl9BZTj+MGO486dQ0A5ZmJoncOb+dMrlfIVPYSNmgzeZsbytouxAj3mGS4HZ+14ughPQMzSuxlhGgehi4bmzRj6zq7aQEhAIChsPOo2eOa+2n7JHEbA+uVsmZVDw59qUC1PLn6z4jJ860cvYVT3EVhGAZMYGdC6EGLYYCNsV2z0GFW8JcMJkujX/z0Co/rFFLxjcyQ7+TpUYVEHQR6wXRrbVWCrKSgmOpSSeLMt4/+rMcyewt2JkSzjbESjJy+ZP8Bhi5nNuws6oYDIEs+5+N1Ky0ig+hjkWrbkkp58oOju0e+nZUoWorhoAh2HkTzDDGxM1rilRQ2a1VMEd3KBcdBZebNMK+o7zg26igXQJYzmL/KTAo6VXgj4swkty822jj7fYthgAM7E0JtI7huQyc4+nxsaS3wxQAg/ZbCqoThoLwgI3x3zvWQA80NZS3qPDYpC6ZbW6uyK+W8/y8lBdG/uy4/8KsRh7cSdiaEehg6bGyS29a1ti4BuzF63sANl8Rv/LpeIXsEIwBpC+al6or05pO/Tlvl4C5KsHbxC8YAMIWdCSG/FzdwFzjOCf5SW5vlBDuPOuEAPK6vlcbmp4R8dysnqgBmFtIXDHg+ExhcP+8flZOyO3rRuoQIIw7PC3YmhLwMrdzYSxfHHGHqceg39QEH8uQzPqtuZUSkw44CyHaT93Vamira436Ztv7aaZ/ZHe0N2bDzIOQyxMTOcI5HzFceqyQy2pULDqpLCsSfHg3l2pKlXABVzmD+U0dHIyjMiLh8Typ2WrQ6fgt7pHMgerkVvTF02GCS69aVttMC9mAADIOdR82e1JSn/SI5uXFbvVLWADvMX1GuYF5qb1E+if3VZbv5+KWnZr4V+YsWk+UMOxOiXtraBthouzWz7BcFf6WPsWbAzqNOOABP6mul8bmpIcFFN6NyYOf5O5QtmJdKb8cXHt3NnW7n4veWjbNfsDaTNRZ2JoR44+zXOU5fEBaqxWS5wM6ibk318ssZyaJP7mZHkX7BMOULpltnR2NXZlJQ7D2Z+Cx/yYEdw0Y6+1Lt/hLSM4ZWbkMXLDj6vb6B2Vq6fcY4Du7np4f6pGbuOAOU1Nj3XyMK5qX6WlnbyV9dNtm6bIqZ5PrFTqYuZxrsTIhqDB1mZzjJdZu3pY1gEwCADTuPWuGg+u5tcdiNc5t/etRQ1gQ7Tm9oVMG8lJ+6NyU/de/0OR7RvpbWwj2a+t9JB9o6bDDZbavA1iVgLwZotxD2aQ1efkCyb95WMt7A7QmN/ot3Mdpj/9i759Jd5uzawdTlvAk7D9I74yeumzzZXRSqb8il3Zv7m+rlkswk0Sd3cqJuws7SHxpdMN3u3IzKunMzatbsldHrR/OE4QAABuxMyD8zZFsZLnk3YacOy2wD3e6zAAAq81JD/bJTdsR2NFHjPss/0fiCeenScY9DUvOICy4Lwrazh9m/CzsP8r/0WKMMnOeHfGA5QeCHYfSaz4IDoCguEO9NzwiOeCTPo+Tl0KvQpmC6VZUmV8aGT1xnyRPsdp67K2SwIXcO7EzIixu4bts+tLAWbMIAvVbO4wDUlBaKw1IvbP6Rajdwe4JWBfNSsVScX1kmmevqGbPV0pj/b7SfMDyTZwa6OriL/gA03NO8o1kRf/KQu1e9UlYPOwtR6HZ9+3/am5Xg4n73HReOC62bGuSnYeehm3H26yZ5fFR4wsFdlEi3cmmqlydfPe0z69jescs0uVwAXc9g/lOJVHy7RCFZ4jx569v2LgE/AQzdBCaSIdvKkP9RwvZhmNm/6HbmiANQVZAS6pd1dYe4o5X6N3B7grZnMP9FqQRpCZ/8GX+Yb1fRLP0FdhyimZrzF830OrmZocNW2y6Fg1mj9Gevitns8ZFUNgwz+4BO5fLiBu5XseH2vJSET2hTLuDZNksIdEvWJ50wNecvV/dxcRzcSTnjs6ogI4LQuRa8hYHOro6i4wADI4k8Dhm1tSoS4g+4v1OvlD2EnQUGdAZDYxgGxk5fHJ6yxCspzJTrZqzq8SfYr7P18C087uokukq3cmnrbEi5etpnwe97xi6ga7kAdA8GAQAwTC34m4ZbSNYWF4i/T7+4+YdH/Xwx9Fj7dfYTZ2z+0ojDW0anSyHw/AbutdzrId/ezT92qbO9EXYc6FDBIM9gABiNthFsN3UUrL12WLCkuDD2Xm/HMGRbGfA/SvhuGGb2Ht2KBQegJj8l1C/n+o7otmb63GN5HVQwyH9htoIJczzE2cU88Z60G8Ghj+R5r538xdBlD5zi+sU6G2e/bwFGr0fOAID2yhLJz9cv+AXVVeVp9CPnvkAFg7yKvqW1INDSRrA25WzA6vy0PTf+7jdaOXg7ui0OPwwAmKDeiPC1NisuJlz13VCbJq6AnYWsUMEgfw8HFtMWhKZynd89lHXS76uq0uSal//XhInrrG2nbf7SyJj3Nt2+R+2dDemZF7Z9eyf/2PnO9kYcdh4yo9UXA+mTAaaG9htN10tWFZTEvC89ExTPX3bg2xdvDaTb90eZlxL6ac7VHUfbWpWoWHqAbl8QpO90bSyEv9l8LKwDABjBDqNmnZWlkl9TUkWBD28n0/aRc1+ggkF6i07l0lFZKvnpZqJoZ4U8uRp2GCpCBYMgr9DWoriUctp3w12puBx2FipDBYMg/6G9reFGxuVt397NP3YO3cDtP1QwCPJc573CmK+vn/bdhW7gqg4qGITuOitLJQdk6RHf3ZOh+SyqhgoGoa22FkXytbO+64sLxCWws2gqVDAI7XS0NWTnZoT9u/B62KnO9sYu2Hk0GSoYhD4wcDfziig4Py3sCLqBqx6oYEhgAA7uw86g0XDw+J40JjD1/Cc7W5oq0BmLGtFqST1ZldyOuzBwEKN6mJmTAwBAF3YeDfK4slTya+rlLSuyE4POPe5oQmctaoZemUkiJiOc9FyXHThoZMwTws5CdW3NiqtXc3dsKLmwp9fvtUFUB53BkEhzU0Xn3fxjsfjj9qwhJvY2g95gqPw1lhoPB/LcjLDNF/942+9BkQStG4IMncGQFEOXrbVgdbzIeKTzZnSvrEeeFNdKglOPrP22uaniKewwyHOoYEhuvP26yS4Lwn7WZrImw85CSjh4UimXRBXciAgulYpLYcdB/hsqGArQYhgMdJwdvGqMzZpvtJksc9h5SOJJZYnkkCwjIvieVIyewpEUKhgKMWJbDV7olbBHb7DZelp/dji4k50k2pCRFHQddhTkn9H3S0phtk6bZk5y+2IXU49Dr8smHJTlpoVtz0nefrC9VYnus1AAKhiK0jUcAVzm7P5stLVwOw020HtaXSLZfunPtUEt6AYupaDH1BT1uL0JlEhjUzo6Gq6wh08a/4aWrhnsTCqHg6eVcklk2oUtwrSLW06giXLUg85gNMRsj+iPRvOEuwEG1LahPZFwAOTZSaL1mYlBSbCzIH2HzmA0RIk0NqPugew3ltEYE53Bw3iw8/RDpSwv8vOzh+d43b9zrhh2GKR/0BmMBuI5eTvYLwgO0cdYrrCz9BSOg/sF6WHB2ZLth9pblU9g50FUAxWMhmLosLE5q2O+MR3F30byz/lp+X3JzqTotYEtTRWoWDQMukTSUE8et4Kim1FJdbgyjmPIs9RmsixhZ/qLrjpccSbthM+7aef8jz7uaEKvUdBAZP6XDVERhg4bTFoTvs7OTBAGMMCCnQfgQJ6RJNqYnRR0BXYUhFioYGjEhOs20m1xeJAhh7cGAChPmypv5UbuSE/Y8kt7i7ITwvERNUMFQ0O8hYH8GU4iMQbAUDUdEq98JN195ad521qaKlCx0Ai6B0NDyrvJ8iq55NjgMVN19bU4tgR+D7o6mhUJyWd81qX++f6hxx1NaBYuzaAzGJozn7DUymHVL9uNMM5iVS05wAHo6mxWnEu5uOXbopyoDFWMiVATKhjkmRmL9r9l7ehzCABg0J9xcADKshNFGzOTgi6rLh1CVegSCXnm/p1zt4oVkgOGOlxdfUPulN7+44MD8PD2zcitZ6KezcC9S1xShErQGQzyP6Z67J8/hedzBGA9ugmMNzeUH0/6c61fhTxZoYZ4CIWggkFeyZBtZTBjcfjXpub8j/7mkXZXW6viUlrClm+KcqJSIUREKAAVDPKP7J39J9i7bf2Dqcuxe/lrOA4qsySi97MSg87CTYcgCOUNZo1izBXG+H/4DV7k/tbhTwxMrBiwMyHU8P8CAAD//1C1L6jN1CJdAAAAAElFTkSuQmCC;" vertex="1" parent="1">
          <mxGeometry x="150" y="500" width="120" height="120" as="geometry" />
        </mxCell>
        <mxCell id="bXPCxXU-g-IQLhuPD34G-23" value="ValKey" style="text;html=1;align=center;verticalAlign=middle;whiteSpace=wrap;rounded=0;fontSize=18;fontColor=light-dark(#1a5fb4, #436697);" vertex="1" parent="1">
          <mxGeometry x="180" y="630" width="60" height="30" as="geometry" />
        </mxCell>
        <mxCell id="bXPCxXU-g-IQLhuPD34G-43" value="link: innhabit_valkey" style="text;html=1;align=center;verticalAlign=middle;whiteSpace=wrap;rounded=0;fillColor=default;" vertex="1" parent="1">
          <mxGeometry x="150" y="680" width="110" height="30" as="geometry" />
        </mxCell>
        <mxCell id="bXPCxXU-g-IQLhuPD34G-46" value="" style="endArrow=classic;html=1;rounded=0;exitX=0.954;exitY=0.958;exitDx=0;exitDy=0;exitPerimeter=0;entryX=0.038;entryY=0.046;entryDx=0;entryDy=0;entryPerimeter=0;" edge="1" parent="1" source="bXPCxXU-g-IQLhuPD34G-2" target="bXPCxXU-g-IQLhuPD34G-11">
          <mxGeometry width="50" height="50" relative="1" as="geometry">
            <mxPoint x="360" y="440" as="sourcePoint" />
            <mxPoint x="450" y="560" as="targetPoint" />
          </mxGeometry>
        </mxCell>
        <mxCell id="bXPCxXU-g-IQLhuPD34G-47" value="" style="sketch=0;pointerEvents=1;shadow=0;dashed=0;html=1;strokeColor=none;fillColor=#505050;labelPosition=center;verticalLabelPosition=bottom;verticalAlign=top;outlineConnect=0;align=center;shape=mxgraph.office.devices.hard_disk;" vertex="1" parent="1">
          <mxGeometry x="345" y="20" width="70" height="90" as="geometry" />
        </mxCell>
        <mxCell id="bXPCxXU-g-IQLhuPD34G-49" value="" style="endArrow=classic;html=1;rounded=0;exitX=0.5;exitY=0;exitDx=0;exitDy=0;" edge="1" parent="1" source="bXPCxXU-g-IQLhuPD34G-2" target="bXPCxXU-g-IQLhuPD34G-47">
          <mxGeometry width="50" height="50" relative="1" as="geometry">
            <mxPoint x="610" y="410" as="sourcePoint" />
            <mxPoint x="660" y="360" as="targetPoint" />
          </mxGeometry>
        </mxCell>
        <mxCell id="bXPCxXU-g-IQLhuPD34G-50" value="" style="endArrow=classic;html=1;rounded=0;entryX=0.5;entryY=0;entryDx=0;entryDy=0;" edge="1" parent="1" source="bXPCxXU-g-IQLhuPD34G-47" target="bXPCxXU-g-IQLhuPD34G-39">
          <mxGeometry width="50" height="50" relative="1" as="geometry">
            <mxPoint x="610" y="410" as="sourcePoint" />
            <mxPoint x="660" y="360" as="targetPoint" />
          </mxGeometry>
        </mxCell>
        <mxCell id="bXPCxXU-g-IQLhuPD34G-52" value="Docker Network" style="text;html=1;align=center;verticalAlign=middle;whiteSpace=wrap;rounded=0;fontSize=23;fontColor=light-dark(#813d9c, #ededed);" vertex="1" parent="1">
          <mxGeometry x="295" y="160" width="170" height="30" as="geometry" />
        </mxCell>
        <mxCell id="bXPCxXU-g-IQLhuPD34G-53" value="" style="shape=flexArrow;endArrow=classic;html=1;rounded=0;fillColor=#d5e8d4;strokeColor=#82b366;startArrow=block;" edge="1" parent="1">
          <mxGeometry width="50" height="50" relative="1" as="geometry">
            <mxPoint x="600" y="329.5" as="sourcePoint" />
            <mxPoint x="730" y="329.90625" as="targetPoint" />
          </mxGeometry>
        </mxCell>
        <mxCell id="bXPCxXU-g-IQLhuPD34G-55" value="&lt;font style=&quot;font-size: 14px;&quot;&gt;Port 80&lt;/font&gt;" style="text;html=1;align=center;verticalAlign=middle;whiteSpace=wrap;rounded=0;fillColor=#d5e8d4;strokeColor=#82b366;fontColor=light-dark(#26a269, #ededed);" vertex="1" parent="1">
          <mxGeometry x="639" y="313" width="60" height="30" as="geometry" />
        </mxCell>
        <mxCell id="bXPCxXU-g-IQLhuPD34G-56" value="" style="shape=flexArrow;endArrow=classic;html=1;rounded=0;fillColor=#d5e8d4;strokeColor=#82b366;startArrow=block;" edge="1" parent="1">
          <mxGeometry width="50" height="50" relative="1" as="geometry">
            <mxPoint x="20" y="346" as="sourcePoint" />
            <mxPoint x="180" y="346.40625" as="targetPoint" />
          </mxGeometry>
        </mxCell>
        <mxCell id="bXPCxXU-g-IQLhuPD34G-57" value="&lt;font style=&quot;font-size: 14px;&quot;&gt;Port 8000&lt;/font&gt;" style="text;html=1;align=center;verticalAlign=middle;whiteSpace=wrap;rounded=0;fillColor=#d5e8d4;strokeColor=#82b366;fontColor=light-dark(#26a269, #ededed);" vertex="1" parent="1">
          <mxGeometry x="61" y="332" width="77" height="30" as="geometry" />
        </mxCell>
      </root>
    </mxGraphModel>
  </diagram>
</mxfile>
